<svg width="453" height="80" viewBox="0 0 453 80" fill="none" xmlns="http://www.w3.org/2000/svg">
<path d="M12.7534 27.9614C16.451 27.9614 20.1477 27.9614 23.8435 27.9614C37.763 27.9614 51.6825 27.9743 65.602 28C66.7688 28 67.1084 27.6784 66.9714 26.6237C66.6588 23.814 65.9133 21.0619 64.7584 18.4535C61.9838 12.2795 57.3083 7.79312 50.8717 4.94281C48.7846 4.01928 48.7189 4.13247 48.3163 6.22905C47.5987 9.96173 46.8098 13.6893 45.9909 17.6998C45.7108 17.0476 45.6 16.3421 45.6677 15.6418C45.717 11.4846 45.7581 7.3275 45.8567 3.17293C45.8813 2.14394 45.4787 1.49568 44.4872 1.06093C41.4332 -0.266477 38.2834 -0.240752 35.1336 0.546429C32.5179 1.1947 32.4412 1.40049 32.4412 3.89066C32.4412 8.54943 32.4412 13.2108 32.4412 17.9133C32.0249 17.7615 32.0221 17.4837 31.9756 17.2419C31.2004 13.2468 30.4061 9.25429 29.6776 5.25408C29.5132 4.33827 29.1298 4.17878 28.3081 4.55693C27.2892 5.02513 26.2155 5.40585 25.2432 5.94607C17.0509 10.4942 12.5069 17.3242 11.1265 26.0835C10.8279 27.91 10.943 27.964 12.7534 27.9614Z" fill="white"/>
<path d="M63.9799 42.7587C64.1155 41.5547 63.5624 40.8519 62.4483 40.604C61.4991 40.3942 60.5339 40.2853 59.5847 40.081C55.2172 39.1336 50.7897 38.5046 46.3354 38.1987C36.524 37.5612 26.8084 38.501 17.1699 40.3969C15.4629 40.732 14.8194 41.5546 15.0428 43.3171C15.2103 44.7091 15.5373 46.0847 15.6543 47.4767C15.9521 51.0179 17.7096 54.3439 17.0555 57.8715C17.3028 59.7048 16.7285 61.4727 17.5049 63.1098C19.4034 67.1277 21.69 70.8814 24.995 73.8615C30.8446 79.1434 37.4919 81.4397 45.2027 79.0644C50.9672 77.291 55.0911 73.3439 58.5158 68.4407C60.9966 64.8995 62.3845 61.0859 61.8474 56.6457C61.6803 55.6114 61.743 54.5518 62.0309 53.5458C63.1742 50.0454 63.5677 46.4007 63.9799 42.7587ZM54.4078 67.3456C51.8313 70.9332 48.5582 73.6626 44.4343 75.1064C39.2042 76.9342 34.3517 75.9236 29.8475 72.7283C25.8751 69.9144 23.2455 66 21.0572 61.7151C20.5414 60.7072 20.7913 59.5768 20.7541 58.6479C20.7727 55.7713 20.7727 55.7631 23.4289 56.2153C25.8698 56.6294 28.2894 57.1633 30.7728 57.3049C32.0863 57.3758 33.0462 56.9889 33.8013 55.8176C35.2557 53.5567 36.8245 51.372 38.3214 49.141C39.369 47.5802 39.4621 47.5666 40.5602 49.1601C42.1104 51.4101 43.6791 53.6493 45.1974 55.9211C45.886 56.9481 46.7103 57.4166 47.9786 57.3294C50.9885 57.1279 53.9319 56.5122 56.8832 55.9674C58.0345 55.7522 58.1542 56.1309 58.2792 57.166C58.7923 61.2983 56.5987 64.3165 54.4211 67.3484L54.4078 67.3456ZM60.2388 44.9379C60.0198 46.8685 59.6895 48.7841 59.2497 50.6747C59.0316 51.5954 58.452 52.0939 57.5187 52.3091C54.7189 52.9955 51.8553 53.2788 49.0342 53.8345C48.1594 54.0061 47.7659 53.415 47.359 52.8185C45.6946 50.3668 44.0434 47.9152 42.3709 45.4636C42.0407 44.9903 41.6045 44.6051 41.0989 44.3402C40.5933 44.0754 40.033 43.9387 39.4652 43.9417C38.8973 43.9446 38.3384 44.0871 37.8354 44.3571C37.3325 44.6271 36.9001 45.0169 36.5745 45.4936C34.8941 47.9289 33.219 50.3669 31.5811 52.8321C31.0759 53.5894 30.5468 53.8672 29.6082 53.7065C26.9068 53.2434 24.1867 52.9084 21.5012 52.3281C20.568 52.1266 19.9537 51.6989 19.7783 50.7264C19.4299 48.8196 19.1002 46.8992 18.7572 44.9869C18.5844 44.0199 18.9886 43.6494 19.9245 43.4642C26.5398 42.1539 33.219 41.4321 41.8817 41.3994C46.4258 41.4266 52.8178 42.2438 59.1646 43.4642C60.0686 43.6576 60.3478 44.0226 60.2388 44.9379Z" fill="white"/>
<path d="M11.8893 32.0712C12.9338 32.8955 14.122 33.5561 15.0829 34.4849C16.2841 35.6451 17.6132 35.9415 19.1512 35.9387C32.2805 35.8992 45.4098 35.727 58.5313 35.998C62.396 36.0799 64.7487 33.6238 67.5714 31.7635C67.7492 31.6624 67.8854 31.4929 67.9531 31.2885C68.0208 31.0841 68.0151 30.8597 67.937 30.6597C67.8639 30.4609 67.7348 30.292 67.5679 30.177C67.4011 30.062 67.205 30.0067 67.0074 30.0188C66.6157 30.0188 66.2241 30.0019 65.835 30.0019H39.4876H29.4499C23.7992 30.0019 18.1476 30.0019 12.4952 30.0019C11.9337 30.0019 11.2679 29.9313 11.0459 30.6512C10.824 31.3711 11.4559 31.7324 11.8893 32.0712Z" fill="white"/>
<path d="M11.9774 57.8352C11.9975 54.5662 11.9774 51.2998 11.9774 48.0307H12C12 44.7616 12 41.4821 12 38.2262C12 36.7776 11.35 36.0861 9.94949 36.0206C9.07607 35.9813 8.19262 36.0049 7.32171 36.0363C5.76563 36.0913 5.00014 36.9557 5.00014 38.6138C5.00014 44.8009 5.00014 50.9889 5.00014 57.1778C4.9975 57.6558 5.03276 58.1333 5.10555 58.6054C5.25613 59.5457 5.73802 60.0487 6.72939 59.9963C7.77097 59.9413 8.81756 59.9963 9.86164 59.9963C11.5031 59.9806 11.9774 59.5195 11.9774 57.8352Z" fill="white"/>
<path d="M73.969 38.9366C73.969 36.5448 73.409 35.9896 71.1839 36.0001C70.6463 36.0001 70.1087 36.0001 69.5686 36.0001C67.6571 36.0001 67.0174 36.6501 67.0124 38.6314C67.0124 41.739 67.0124 44.8439 67.0124 47.9514H67C67 51.0142 67 54.077 67 57.1372C67 59.5816 67.3908 59.9895 69.6383 60C70.4248 60 71.2113 60 71.9978 60C73.4762 59.9763 73.9889 59.4737 73.9889 57.8503C74.0138 55.7058 73.9889 53.5639 73.9889 51.4194C73.9889 47.2488 73.9889 43.0941 73.969 38.9366Z" fill="white"/>
<path d="M240.04 18.9629C234.027 18.6468 228.013 18.9155 222.053 18.8286C219.798 18.8286 218.971 19.7374 219.001 22.1164C219.106 28.8107 219.001 35.5524 219.046 42.2151C219.091 48.8778 219.046 55.6512 219.046 62.3218C219.046 64.1633 219.174 65.8072 221.549 65.7756C228.043 65.6887 234.568 66.0285 241.025 65.499C248.947 64.8588 254.555 59.1129 256.133 50.8774C257.121 45.714 257.266 40.4114 256.561 35.1968C255.261 25.6098 249.233 19.4134 240.04 18.9629ZM245.625 49.7867C244.58 54.4894 242.167 56.1096 236.763 56.4889C229.509 56.9394 229.509 56.9394 229.509 49.3757V42.6736C229.509 38.7218 229.509 34.77 229.509 30.8182C229.509 29.4351 229.456 28.1231 231.343 28.1942C234.207 28.297 237.123 28.0599 239.935 28.5104C243.437 29.0795 245.196 31.8852 245.903 35.3074C246.832 40.08 246.737 45.0103 245.625 49.7393V49.7867Z" fill="white"/>
<path d="M296.945 60.2278C297.162 57.9516 296.646 56.4578 293.952 56.5685C289.35 56.7424 284.741 56.6317 280.131 56.6317C273.396 56.6317 273.524 56.6317 273.359 49.5739C273.292 46.7761 274.302 46.3414 276.584 46.4125C281.306 46.5706 286.043 46.4125 290.802 46.4916C293.892 46.5548 294.147 44.5868 294.027 42.0814C293.915 39.7104 294.364 37.1734 290.794 37.2919C286.813 37.4342 282.825 37.3552 278.822 37.2919C272.663 37.1339 273.808 38.4617 273.411 31.6884C273.254 28.8985 274.324 28.4243 276.622 28.4796C282.219 28.614 287.846 28.3926 293.428 28.5823C297.357 28.7088 296.594 25.8398 296.728 23.4767C296.87 20.9476 296.796 18.7346 293.368 18.8057C284.389 18.948 275.409 18.9322 266.467 18.8532C263.901 18.8532 262.943 19.8174 263.003 22.5678C263.145 29.0091 263.048 35.4584 263.048 41.9076H263.107C263.107 48.6097 263.107 55.3171 263.107 62.0297C263.107 63.9898 263.205 65.7839 265.764 65.776C275.222 65.776 284.688 65.8392 294.154 65.776C298.098 65.7365 296.713 62.4408 296.945 60.2278Z" fill="white"/>
<path d="M130.376 56.3515C125.743 56.5337 121.109 56.6367 116.475 56.6209C109.585 56.6209 110.548 57.722 110.322 50.0612C110.232 47.1934 111.232 46.4487 113.775 46.5358C118.529 46.7101 123.298 46.5358 128.067 46.6388C130.956 46.718 131.73 45.2604 131.655 42.4955C131.58 39.7306 131.542 37.5124 127.954 37.655C123.072 37.8452 118.175 37.655 113.301 37.655C108.787 37.655 110.834 34.09 110.405 31.9272C109.908 29.4555 110.818 28.3306 113.414 28.4098C118.792 28.5603 124.185 28.3068 129.571 28.5127C133.129 28.6474 133.694 26.5322 133.791 23.5613C133.889 20.3449 132.896 18.7129 129.481 18.808C120.956 18.9929 112.431 18.9929 103.906 18.808C100.897 18.7525 99.994 20.0439 100.054 23.0226C100.182 29.3604 100.092 35.6982 100.092 42.036H100.002C100.002 48.6273 100.069 55.2265 100.002 61.8416C99.9564 64.6777 100.897 65.8502 103.71 65.8027C112.601 65.6918 121.495 65.6918 130.391 65.8027C133.618 65.8581 134.092 64.0915 133.987 61.3187C133.882 58.5459 133.987 56.2168 130.376 56.3515Z" fill="white"/>
<path d="M368.326 56.6786C364.2 56.9627 360.038 56.7733 355.869 56.7654C348.439 56.7654 348.541 56.7654 348.922 48.8727C349.025 46.9469 349.611 46.426 351.296 46.5049C356.052 46.6075 360.822 46.4181 365.563 46.6312C368.494 46.7575 369.557 45.5736 369.359 42.5191C369.19 39.8593 369.535 37.16 365.651 37.5072C361.987 37.8308 358.324 37.7125 354.66 37.6651C348.065 37.5783 349.355 38.6833 348.981 31.6509C348.856 29.2357 349.472 28.4938 351.773 28.4938C357.378 28.6675 362.991 28.4938 368.626 28.557C372.766 28.6043 371.491 25.1947 371.762 22.8979C372.033 20.6011 371.579 18.77 368.707 18.8726C364.31 19.0305 359.914 18.92 355.517 18.8726C351.252 18.8726 346.973 19.0384 342.716 18.8174C339.785 18.6595 338.971 19.8987 339.001 22.9374C339.125 35.9445 339.103 48.9832 339.001 61.9509C339.001 64.5555 339.55 65.7867 342.24 65.7473C351.033 65.6368 359.826 65.6289 368.575 65.8025C371.836 65.8657 372.063 63.9872 371.989 61.3037C371.916 58.6202 371.828 56.4418 368.326 56.6786Z" fill="white"/>
<path d="M163.595 19.5969C155.989 18.1843 148.292 19.0998 140.64 19.0524C138.145 19.0524 138.032 21.1043 138.017 22.9983C137.979 29.4302 138.017 35.87 138.017 42.3019C138.017 47.6841 138.017 53.0664 138.017 58.4486C138.017 66.0564 138.017 65.9696 145.336 65.7328C147.861 65.646 149.025 64.8252 148.882 62.0394C148.723 59.0247 148.95 55.9942 148.806 52.9795C148.693 50.4463 149.562 49.5229 152.057 49.594C156.435 49.7123 160.836 50.0359 165.13 48.497C171.731 46.1294 174.483 41.1891 173.931 32.2949C173.478 25.4606 169.765 20.7334 163.595 19.5969ZM157.849 40.2579C156.851 40.3131 155.845 40.2579 154.825 40.2579C148.36 40.3605 148.617 40.3605 148.587 33.3209C148.587 29.2171 149.835 27.6309 153.728 28.2622C155.1 28.3584 156.475 28.3795 157.849 28.3254C161.985 28.5305 163.663 30.2825 163.633 34.2995C163.603 38.3165 161.977 40.0132 157.849 40.2579Z" fill="white"/>
<path d="M395.895 27.0829C400.403 26.7831 403.289 28.661 405.032 32.9534C405.565 34.2869 405.866 35.9281 407.557 35.9834C410.224 36.0781 413.613 37.6325 415.356 35.2732C417.009 33.0481 415.101 30.0181 413.854 27.6037C413.178 26.3475 412.341 25.1951 411.366 24.1792C404.649 17.0146 396.458 16.6043 388.073 19.4449C379.687 22.2854 376.749 29.5132 376.05 38.0665C375.937 39.3763 376.05 40.694 376.05 42.0117C376.05 43.3294 375.982 44.6471 376.05 45.957C376.884 59.1657 384.316 66.7326 396.406 66.8037C405.776 66.8589 413.335 61.3435 415.499 52.8138C415.875 51.3383 416.544 49.6576 414.86 48.545C412.441 46.9117 406.392 48.8133 405.272 51.5119C403.492 55.7885 400.516 57.5876 395.647 57.3114C391.469 57.0826 388.621 54.8416 387.517 50.4624C386.243 45.2186 386.191 39.7297 387.366 34.4605C388.261 29.8603 391.319 27.3985 395.895 27.0829Z" fill="white"/>
<path d="M452.969 24.3843C452.766 21.4515 453.381 18.6528 448.932 18.8104C439.929 19.1179 430.925 18.9287 421.967 18.9523C417.023 18.9523 417.03 19.0942 417 24.2109C417 27.1831 417.885 28.6495 420.871 28.4366C422.74 28.3026 424.623 28.6258 426.484 28.4366C429.222 28.1292 429.815 29.3827 429.77 32.0238C429.635 40.8143 429.725 49.6048 429.702 58.3952C429.702 66.0741 429.702 66.0031 437.205 65.7114C439.456 65.6247 440.341 64.86 440.296 62.4633C440.191 57.2205 440.296 51.9699 440.296 46.6956C440.296 43.684 440.296 40.6645 440.296 37.645C440.296 28.4682 440.296 28.3657 448.82 28.4918C451.746 28.5391 453.239 27.869 452.969 24.3843Z" fill="white"/>
<path d="M331.963 18.8041C322.118 18.8041 312.274 18.8041 302.429 18.8041C300.93 18.8041 299.791 19.1272 299.386 20.9553C298.187 26.3136 299.716 28.4332 304.903 28.4096C305.901 28.4774 306.903 28.4774 307.901 28.4096C310.9 27.9762 312.136 28.9769 311.934 32.4046C311.649 37.1325 311.867 41.8603 311.867 46.5882C311.867 51.8283 311.942 57.0683 311.867 62.3084C311.814 64.8299 312.676 65.9883 315.127 65.7204C315.997 65.6179 316.874 65.6179 317.743 65.7204C321.229 66.1695 322.578 64.8457 322.466 60.9215C322.196 51.2373 322.466 41.5373 322.256 31.8452C322.196 29.0085 323.005 28.1732 325.592 28.4332C327.69 28.646 329.827 28.4332 331.941 28.4884C335.254 28.6302 335.081 26.1796 334.939 23.9575C334.796 21.7354 335.606 18.7962 331.963 18.8041Z" fill="white"/>
<path d="M189.96 42.5232H189.892C189.892 36.1833 189.727 29.8434 189.96 23.5034C190.095 19.7312 188.645 18.4552 185.317 18.8832C184.447 18.9849 183.569 19.0035 182.696 18.9387C180.172 18.7564 178.993 19.9689 179 22.6238C179 35.8108 179 48.9979 179.068 62.185C179.068 64.5625 180.037 65.9335 182.485 65.7829C183.736 65.7033 184.99 65.7033 186.241 65.7829C188.938 65.981 190.065 64.8002 189.997 61.8204C189.832 55.4567 189.96 49.0058 189.96 42.5232Z" fill="white"/>
<path d="M1.35844 56.7157C2.39141 57.3219 2.98537 56.944 2.99311 55.7234C3.00861 53.1926 2.99311 50.6618 2.99311 48.1309H2.97504C2.97504 45.5566 2.97504 42.9795 2.97504 40.4052C2.97504 39.9349 3.14031 39.3042 2.56701 39.1004C2.28192 38.9878 1.97102 38.9694 1.67574 39.0476C1.38047 39.1258 1.11484 39.2969 0.914263 39.538C0.415855 40.1116 -0.0025005 40.7097 8.19311e-05 41.5496C8.19311e-05 45.842 8.19311e-05 50.1344 8.19311e-05 54.4268C-0.00766535 55.5032 0.534647 56.2372 1.35844 56.7157Z" fill="white"/>
<path d="M76.0196 47.9049H76.1366C76.1366 50.4753 76.123 53.0483 76.1366 55.6214C76.1366 56.0724 75.8782 56.7082 76.4846 56.9365C77.0285 57.1348 77.5289 56.8359 77.9775 56.4936C78.2915 56.2726 78.5456 55.9772 78.717 55.6338C78.8883 55.2905 78.9716 54.9099 78.9592 54.5264C78.9592 50.1465 78.9728 45.7666 79 41.3867C79 40.5227 78.6111 39.9467 78.0102 39.4168C77.7957 39.2156 77.5281 39.08 77.239 39.0261C76.9498 38.9722 76.6512 39.0022 76.3786 39.1125C75.8619 39.3136 76.0251 39.8896 76.0224 40.3189C76.0142 42.8458 76.0196 45.3754 76.0196 47.9049Z" fill="white"/>
<path d="M212.903 44.9589C213.165 42.8819 212.276 41.747 209.989 41.8063C206.113 41.925 202.237 41.9695 198.368 41.8805C195.775 41.8211 195.061 43.1415 195.01 45.5152C194.915 49.9659 195.447 50.6483 199.869 50.7076C201.086 50.7076 202.295 50.7076 203.512 50.7076V50.8041C205.807 50.6854 208.109 50.6483 210.397 50.4183C214.156 50.0474 212.662 47.0136 212.903 44.9589Z" fill="white"/>
</svg>
